# xmcd
#
# Track frame offsets: 
#        150
#        12474
#        22329
#        31549
#        41757
#        51544
#        66912
#        79724
#        89129
#        102512
#        113247
#        124924
#        137812
#        151354
#
# Disc length: 2636 seconds
#
# Revision: 1
# Processed by: cddbd v1.5.2PL0 Copyright (c) Steve Scherf et al.
# Submitted via: ExactAudioCopyFreeDBPlugin 1.0
#
DISCID=c90a4a0e
DTITLE=Frank Sinatra - Coleção Folha Grandes Vozes
DYEAR=2012
DGENRE=Jazz
TTITLE0=Ring-A-Ding-Ding
TTITLE1=Let's Fall In Love
TTITLE2=Be Careful, It's My Heart
TTITLE3=A Foggy Day
TTITLE4=A Fine Romance
TTITLE5=In The Still Of The Night
TTITLE6=The Coffee Song
TTITLE7=When I Take My Sugar To Tea
TTITLE8=Let's Face The Music And Dance
TTITLE9=You'd Be So Easy To Love
TTITLE10=You And The Night And The Music
TTITLE11=I've Got My Love To Keep Me Warm
TTITLE12=Zing! Went The Strings Of My Heart
TTITLE13=Have You Met Miss Jones?
EXTD=YEAR: 2012
EXTT0=
EXTT1=
EXTT2=
EXTT3=
EXTT4=
EXTT5=
EXTT6=
EXTT7=
EXTT8=
EXTT9=
EXTT10=
EXTT11=
EXTT12=
EXTT13=
PLAYORDER=
